<?xml version="1.0"?>
<svg xmlns="http://www.w3.org/2000/svg" xmlns:xlink="http://www.w3.org/1999/xlink" version="1.1" width="1000" height="1000" viewBox="0 0 1000 1000" xml:space="preserve" style="background-color:transparent;">
<desc>Created with Fabric.js 3.5.0</desc>
<defs>
</defs>
<rect x="0" y="0" width="100%" height="100%" fill="none"/>
<g transform="matrix(2.6357 0 0 -2.6357 500.0044 500.0062)" id="242517">
<g style="" vector-effect="non-scaling-stroke">
		<g transform="matrix(37.7953 0 0 -37.7953 0.0001 0.0001)">
<path style="stroke: none; stroke-width: 1; stroke-dasharray: none; stroke-linecap: round; stroke-dashoffset: 0; stroke-linejoin: round; stroke-miterlimit: 4; is-custom-font: none; font-file-url: none; fill: rgb(0,0,0); fill-rule: nonzero; opacity: 1;" transform=" translate(-306.7974, -34.9481)" d="M 303.5310371 39.0167513 L 303.5310371 39.0167513 L 303.5276709 38.9876301 L 303.5255664 38.9586391 L 303.5246718 38.929777 L 303.5249353 38.9010423 L 303.5263054 38.8724336 L 303.5287301 38.8439495 L 303.532158 38.8155884 L 303.5365371 38.7873491 L 303.5418158 38.75923 L 303.5479423 38.7312296 L 303.554865 38.7033467 L 303.5625321 38.6755796 L 303.5708918 38.6479271 L 303.5798926 38.6203876 L 303.5996101 38.5656421 L 303.5996101 38.5656421 L 303.6165849 38.5228095 L 303.6346281 38.4806228 L 303.6537105 38.4390682 L 303.673803 38.3981317 L 303.6948766 38.3577996 L 303.7169021 38.3180579 L 303.7398504 38.2788929 L 303.7636926 38.2402905 L 303.7883995 38.202237 L 303.813942 38.1647185 L 303.8402911 38.1277212 L 303.8674176 38.0912311 L 303.8952925 38.0552344 L 303.9238867 38.0197173 L 303.9531711 37.9846658 L 303.9831167 37.9500662 L 303.9831167 37.9500662 L 304.0170572 37.9122374 L 304.0516376 37.8751585 L 304.0868753 37.8388575 L 304.1227873 37.8033625 L 304.1593908 37.7687016 L 304.196703 37.7349028 L 304.234741 37.7019942 L 304.2735221 37.6700039 L 304.3130634 37.6389599 L 304.3533821 37.6088904 L 304.3944953 37.5798233 L 304.4364202 37.5517868 L 304.4791739 37.5248089 L 304.5227738 37.4989178 L 304.5672368 37.4741414 L 304.6125802 37.4505079 L 304.6125802 37.4505079 L 304.6456059 37.4342781 L 304.6787358 37.4187899 L 304.7119697 37.404043 L 304.7453075 37.3900371 L 304.7787492 37.376772 L 304.8122946 37.3642473 L 304.8459434 37.3524629 L 304.8796958 37.3414183 L 304.9135514 37.3311133 L 304.9475101 37.3215476 L 304.9815719 37.3127209 L 305.0157366 37.304633 L 305.0500041 37.2972835 L 305.0843742 37.2906722 L 305.1188469 37.2847987 L 305.1534219 37.2796629 L 305.1880992 37.2752643 L 305.2228786 37.2716028 L 305.2577601 37.268678 L 305.2927434 37.2664897 L 305.3278284 37.2650374 L 305.3630151 37.2643211 L 305.3983032 37.2643403 L 305.4336927 37.2650949 L 305.4691835 37.2665844 L 305.5047753 37.2688087 L 305.5404681 37.2717674 L 305.5762618 37.2754602 L 305.6121561 37.2798869 L 305.6481511 37.2850472 L 305.6842465 37.2909407 L 305.7204422 37.2975673 L 305.7204422 37.2975673 L 305.7350353 37.3003681 A 8.0236232 8.0236232 282.2678695 0 1 305.8505734 37.3263861 A 18.0564126 18.0564126 17.5716318 0 0 305.89629 37.1798603 A 3.7073263 3.7073263 98.8537128 0 1 305.8240633 37.167878 L 305.8240633 37.167878 L 305.7868674 37.158487 L 305.7499158 37.1485286 L 305.7132254 37.1379642 L 305.6768131 37.1267552 L 305.6406957 37.114863 L 305.6048904 37.1022491 L 305.5694139 37.0888748 L 305.5342833 37.0747016 L 305.4995154 37.0596909 L 305.4651272 37.0438042 L 305.4311357 37.0270029 L 305.3975577 37.0092483 L 305.3644102 36.990502 L 305.3317101 36.9707253 L 305.2994744 36.9498797 L 305.26772 36.9279266 L 305.26772 36.9279266 L 305.2293824 36.8991795 L 305.1930771 36.8691946 L 305.1588007 36.8379722 L 305.12655 36.8055127 L 305.0963217 36.7718167 L 305.0681126 36.7368845 L 305.0419193 36.7007166 L 305.0177385 36.6633133 L 304.995567 36.6246753 L 304.9754015 36.5848028 L 304.9572387 36.5436964 L 304.9410753 36.5013564 L 304.9269081 36.4577833 L 304.9147337 36.4129775 L 304.9045489 36.3669395 L 304.8963504 36.3196697 L 304.8963504 36.3196697 L 304.8914621 36.2844419 L 304.8874114 36.2493557 L 304.8841831 36.2144089 L 304.8817616 36.1795991 L 304.8801315 36.144924 L 304.8792773 36.1103811 L 304.8791836 36.0759681 L 304.879835 36.0416827 L 304.8812159 36.0075226 L 304.883311 35.9734852 L 304.8861048 35.9395684 L 304.8895818 35.9057697 L 304.8937266 35.8720868 L 304.8985238 35.8385173 L 304.9039578 35.8050589 L 304.9100133 35.7717091 L 304.9239269 35.7053263 L 304.9401409 35.6393501 L 304.9585318 35.5737615 L 304.9789759 35.5085417 L 305.0013497 35.4436719 L 305.0255296 35.3791331 L 305.0513919 35.3149066 L 305.0788132 35.2509734 L 305.0788132 35.2509734 L 305.0937218 35.2179583 L 305.1091302 35.1853116 L 305.1414124 35.1210991 L 305.1755911 35.0582878 L 305.2115978 34.9968295 L 305.249364 34.9366758 L 305.288821 34.8777786 L 305.3299002 34.8200895 L 305.3725332 34.7635605 L 305.4166512 34.7081431 L 305.4621859 34.6537892 L 305.5090685 34.6004505 L 305.5572305 34.5480788 L 305.6066034 34.4966259 L 305.6571186 34.4460434 L 305.7087074 34.3962832 L 305.7613014 34.3472971 L 305.7613014 34.3472971 L 305.8281353 34.2870565 L 305.8958866 34.2279677 L 305.9645796 34.1700602 L 306.0342385 34.1133638 L 306.1048876 34.0579078 L 306.176551 34.0037221 L 306.2492532 33.950836 L 306.3230182 33.8992794 L 306.4029656 33.8445331 L 306.3054312 33.8445331 L 306.3054312 33.8445331 L 306.2693449 33.8426872 L 306.2333731 33.8402478 L 306.1975207 33.8371955 L 306.1617926 33.8335107 L 306.1261935 33.8291741 L 306.0907283 33.8241659 L 306.0554019 33.8184668 L 306.020219 33.8120572 L 305.9851846 33.8049176 L 305.9503034 33.7970285 L 305.9155804 33.7883703 L 305.8810202 33.7789237 L 305.8466278 33.768669 L 305.8124081 33.7575867 L 305.7783658 33.7456574 L 305.7445058 33.7328615 L 305.7445058 33.7328615 L 305.7150654 33.720957 L 305.6860576 33.7084432 L 305.6575272 33.695264 L 305.629519 33.6813631 L 305.6020778 33.6666844 L 305.5752486 33.6511717 L 305.5490762 33.6347687 L 305.5236053 33.6174193 L 305.4988808 33.5990674 L 305.4749476 33.5796567 L 305.4518506 33.559131 L 305.4296344 33.5374342 L 305.408344 33.51451 L 305.3880243 33.4903023 L 305.36872 33.4647549 L 305.350476 33.4378116 L 305.350476 33.4378116 L 305.3379048 33.4172844 L 305.3262543 33.3964706 L 305.3154971 33.3753807 L 305.3056053 33.3540254 L 305.2965513 33.3324153 L 305.2883076 33.3105609 L 305.2808464 33.288473 L 305.27414 33.266162 L 305.268161 33.2436387 L 305.2628815 33.2209136 L 305.258274 33.1979972 L 305.2543108 33.1749003 L 305.2509642 33.1516335 L 305.2482067 33.1282072 L 305.244348 33.0809191 L 305.244348 33.0809191 L 305.2422837 33.0379691 L 305.2411711 32.9952672 L 305.2409958 32.9528097 L 305.2417436 32.9105931 L 305.2434001 32.8686139 L 305.2459511 32.8268684 L 305.2493822 32.7853531 L 305.2536791 32.7440645 L 305.2588276 32.702999 L 305.2648133 32.662153 L 305.271622 32.621523 L 305.2792392 32.5811054 L 305.2876508 32.5408967 L 305.2968424 32.5008932 L 305.3067996 32.4610916 L 305.3175083 32.4214881 L 305.3289541 32.3820792 L 305.3411226 32.3428614 L 305.3539997 32.3038311 L 305.3675709 32.2649847 L 305.381822 32.2263187 L 305.3967387 32.1878296 L 305.4123066 32.1495137 L 305.4285115 32.1113676 L 305.4453391 32.0733875 L 305.462775 32.0355701 L 305.4808049 31.9979117 L 305.4994146 31.9604088 L 305.5383161 31.8858552 L 305.5793648 31.8118807 L 305.5793648 31.8118807 L 305.6244195 31.734733 L 305.6708534 31.6587143 L 305.718693 31.5838495 L 305.7679651 31.5101638 L 305.818696 31.4376822 L 305.8709124 31.3664299 L 305.9246408 31.2964319 L 305.9799077 31.2277133 L 306.0367398 31.1602992 L 306.0951635 31.0942147 L 306.1552055 31.0294848 L 306.2168923 30.9661346 L 306.2802504 30.9041892 L 306.3453063 30.8436737 L 306.4120868 30.7846132 L 306.4806182 30.7270327 L 306.4806182 30.7270327 L 306.5146231 30.69965 L 306.5490179 30.6729222 L 306.5838322 30.6469136 L 306.6190956 30.6216882 L 306.6548376 30.5973101 L 306.6910877 30.5738435 L 306.7278755 30.5513526 L 306.7652304 30.5299014 L 306.8031821 30.5095541 L 306.8417601 30.4903748 L 306.8809939 30.4724276 L 306.9209131 30.4557767 L 306.9615471 30.4404862 L 307.0029256 30.4266202 L 307.045078 30.4142429 L 307.0880339 30.4034184 L 307.0880339 30.4034184 L 307.1222514 30.3962017 L 307.1565002 30.3905511 L 307.1907679 30.386746 L 307.2250424 30.3850656 L 307.2421783 30.3851095 L 307.2593113 30.3857893 L 307.2764398 30.38714 L 307.2935623 30.3891964 L 307.3106774 30.3919934 L 307.3277833 30.3955661 L 307.3448787 30.3999492 L 307.3619619 30.4051778 L 307.3619619 30.4051778 L 307.3745189 30.4096482 L 307.3861935 30.4144444 L 307.3969975 30.4195793 L 307.4069427 30.4250657 L 307.4160411 30.4309166 L 307.4243045 30.4371447 L 307.4317449 30.4437629 L 307.4383741 30.4507842 L 307.4442039 30.4582213 L 307.4492463 30.4660871 L 307.4535132 30.4743945 L 307.4570164 30.4831564 L 307.4597679 30.4923855 L 307.4617794 30.5020949 L 307.4630629 30.5122972 L 307.4636302 30.5230055 L 307.4636302 30.5230055 L 307.4635041 30.5367144 L 307.4625824 30.5498696 L 307.4608656 30.5624675 L 307.4583541 30.5745045 L 307.4550486 30.5859772 L 307.4509496 30.5968821 L 307.4460575 30.6072155 L 307.440373 30.616974 L 307.4338966 30.6261541 L 307.4266288 30.6347523 L 307.4185701 30.642765 L 307.4097211 30.6501888 L 307.4000823 30.65702 L 307.3896543 30.6632552 L 307.3784375 30.6688909 L 307.3664326 30.6739235 L 307.3664326 30.6739235 L 307.3536026 30.6784666 L 307.3407932 30.6823033 L 307.3280057 30.6854393 L 307.3152413 30.6878806 L 307.3025013 30.6896329 L 307.2897869 30.6907019 L 307.2770994 30.6910935 L 307.26444 30.6908135 L 307.25181 30.6898677 L 307.2392106 30.6882618 L 307.2266432 30.6860016 L 307.2141088 30.683093 L 307.2016089 30.6795418 L 307.1891446 30.6753536 L 307.1767172 30.6705344 L 307.164328 30.6650899 L 307.164328 30.6650899 L 307.1242211 30.6454929 L 307.0850214 30.6241632 L 307.0850214 30.6241632 L 307.0648368 30.6133591 L 307.0446822 30.604223 L 307.0245533 30.5967088 L 307.0044458 30.5907704 L 306.9843555 30.586362 L 306.964278 30.5834375 L 306.944209 30.5819508 L 306.9241443 30.5818561 L 306.9040795 30.5831072 L 306.8840103 30.5856582 L 306.8639325 30.589463 L 306.8438417 30.5944757 L 306.8237337 30.6006503 L 306.8036042 30.6079407 L 306.7834488 30.616301 L 306.7632633 30.6256851 L 306.7632633 30.6256851 L 306.7369982 30.63897 L 306.7111816 30.6528865 L 306.6857943 30.6674044 L 306.6608173 30.6824932 L 306.6362314 30.6981227 L 306.6120177 30.7142623 L 306.5646301 30.7479507 L 306.5185018 30.7833155 L 306.4734802 30.8201136 L 306.4294125 30.858102 L 306.386146 30.8970378 L 306.386146 30.8970378 L 306.3468892 30.9335602 L 306.3083209 30.9705459 L 306.2704396 31.0079934 L 306.2332439 31.0459014 L 306.1967324 31.0842685 L 306.1609038 31.1230933 L 306.1257565 31.1623746 L 306.0912891 31.2021108 L 306.0575002 31.2423007 L 306.0243884 31.2829429 L 305.9919523 31.324036 L 305.9601905 31.3655787 L 305.9291014 31.4075695 L 305.8986838 31.4500073 L 305.8689361 31.4928904 L 305.839857 31.5362177 L 305.811445 31.5799878 L 305.7836987 31.6241992 L 305.7566167 31.6688506 L 305.7301976 31.7139406 L 305.7044399 31.759468 L 305.6793422 31.8054313 L 305.654903 31.8518291 L 305.6311211 31.8986601 L 305.6079949 31.945923 L 305.585523 31.9936163 L 305.563704 32.0417387 L 305.5425364 32.0902888 L 305.522019 32.1392654 L 305.5021501 32.1886669 L 305.4829284 32.238492 L 305.4643526 32.2887395 L 305.4643526 32.2887395 L 305.4394591 32.3603348 L 305.4166163 32.4324545 L 305.4060675 32.4687199 L 305.3961557 32.5051269 L 305.3869222 32.5416791 L 305.3784085 32.5783802 L 305.370656 32.6152335 L 305.363706 32.6522426 L 305.3576002 32.6894112 L 305.3523797 32.7267426 L 305.3480861 32.7642404 L 305.3447608 32.8019083 L 305.3424452 32.8397496 L 305.3411807 32.877768 L 305.3411807 32.877768 L 305.3410422 32.9052171 L 305.3416845 32.9320707 L 305.343111 32.9583302 L 305.3453248 32.983997 L 305.348329 33.0090726 L 305.3521268 33.0335584 L 305.3567213 33.057456 L 305.3621159 33.0807666 L 305.3683135 33.1034918 L 305.3753174 33.1256331 L 305.3831308 33.1471918 L 305.3917568 33.1681693 L 305.4011985 33.1885673 L 305.4114592 33.208387 L 305.4225421 33.2276299 L 305.4344502 33.2462976 L 305.4471867 33.2643913 L 305.4607549 33.2819126 L 305.4751579 33.2988629 L 305.4903989 33.3152437 L 305.5064809 33.3310563 L 305.5234073 33.3463023 L 305.5411811 33.3609831 L 305.5598056 33.3751001 L 305.5792838 33.3886547 L 305.599619 33.4016485 L 305.6208144 33.4140828 L 305.642873 33.4259592 L 305.6657981 33.4372789 L 305.6895928 33.4480436 L 305.7142604 33.4582546 L 305.7398039 33.4679134 L 305.7398039 33.4679134 L 305.800622 33.4887773 L 305.8616399 33.5074925 L 305.9228516 33.5240233 L 305.9842507 33.5383342 L 306.0458311 33.5503894 L 306.1075868 33.5601534 L 306.1695115 33.5675905 L 306.231599 33.5726653 L 306.2627019 33.5743056 L 306.2938433 33.5753419 L 306.3250222 33.5757699 L 306.356238 33.5755849 L 306.38749 33.5747826 L 306.4187772 33.5733586 L 306.450099 33.5713084 L 306.4814546 33.5686274 L 306.5128432 33.5653113 L 306.5442641 33.5613557 L 306.5757164 33.556756 L 306.6071994 33.5515079 L 306.6387124 33.5456068 L 306.6702545 33.5390483 L 306.701825 33.5318279 L 306.7334232 33.5239413 L 306.7334232 33.5239413 L 306.7621584 33.5162849 L 306.7621584 33.5162849 L 306.7891549 33.505869 L 306.8177236 33.4947645 L 306.8329003 33.4888213 L 306.8489321 33.4825036 L 306.8660461 33.475712 L 306.8844399 33.4683597 L 306.9107606 33.3589632 L 306.9107606 33.3589632 L 306.9431815 33.2133982 L 306.9762064 33.0679794 L 307.0100823 32.9227711 L 307.0450565 32.7778376 L 307.081376 32.6332432 L 307.1192878 32.4890522 L 307.159039 32.3453291 L 307.2008768 32.202138 L 307.2008768 32.202138 L 307.2188925 32.1443623 L 307.2379629 32.0873742 L 307.2580875 32.0311742 L 307.2792663 31.9757625 L 307.3014988 31.9211398 L 307.3247848 31.8673064 L 307.349124 31.8142627 L 307.3745163 31.7620092 L 307.4009612 31.7105463 L 307.4284586 31.6598745 L 307.4570082 31.6099941 L 307.4866096 31.5609056 L 307.5172627 31.5126094 L 307.5489672 31.4651059 L 307.5817227 31.4183957 L 307.6155291 31.372479 L 307.6503861 31.3273564 L 307.6862933 31.2830283 L 307.7232506 31.239495 L 307.7612576 31.1967571 L 307.8003141 31.1548149 L 307.8404198 31.113669 L 307.8815745 31.0733196 L 307.9237778 31.0337673 L 307.9670296 30.9950124 L 308.0113295 30.9570555 L 308.0566773 30.9198969 L 308.1030727 30.883537 L 308.1505154 30.8479763 L 308.1990052 30.8132153 L 308.2485418 30.7792543 L 308.2991249 30.7460938 L 308.2991249 30.7460938 L 308.3291217 30.7272158 L 308.3593985 30.7088885 L 308.3899649 30.6911497 L 308.4208307 30.6740366 L 308.4520054 30.6575871 L 308.4834989 30.6418384 L 308.5153209 30.6268282 L 308.5474809 30.612594 L 308.5799888 30.5991734 L 308.6128542 30.5866038 L 308.6460868 30.5749229 L 308.6796964 30.564168 L 308.7136925 30.5543769 L 308.748085 30.5455869 L 308.7828834 30.5378357 L 308.8180976 30.5311607 L 308.8180976 30.5311607 L 308.8518115 30.5257484 L 308.8855745 30.5213145 L 308.9193796 30.5180921 L 308.9532198 30.5163142 L 308.9870882 30.5162141 L 309.0209778 30.5180248 L 309.0548816 30.5219794 L 309.0718367 30.5248336 L 309.0887927 30.5283111 L 309.0887927 30.5283111 L 309.1188462 30.5359624 L 309.1188462 30.5359624 L 309.1469332 30.545095 L 309.1741265 30.5560689 L 309.2004449 30.5687427 L 309.2258621 30.5830116 L 309.2502835 30.5988652 L 309.2735441 30.6164048 L 309.2846741 30.6258635 L 309.2954343 30.6358177 L 309.3058005 30.6462929 L 309.3157555 30.6573082 L 309.3157555 30.6573082 L 309.327346 30.6714324 L 309.3382593 30.6861678 L 309.3484916 30.701508 L 309.3580384 30.7174463 L 309.3668959 30.7339763 L 309.3750598 30.7510915 L 309.382526 30.7687852 L 309.3892904 30.7870511 L 309.395349 30.8058824 L 309.4006974 30.8252728 L 309.4053317 30.8452156 L 309.4092478 30.8657043 L 309.4124414 30.8867325 L 309.4149085 30.9082935 L 309.416645 30.9303808 L 309.4176467 30.952988 L 309.4176467 30.952988 L 309.4181935 31.0058613 L 309.4169446 31.0583532 L 309.4139738 31.1104808 L 309.4093551 31.1622611 L 309.4031622 31.2137113 L 309.3954691 31.2648484 L 309.3863495 31.3156896 L 309.3758773 31.3662519 L 309.3641264 31.4165525 L 309.3511705 31.4666083 L 309.3370836 31.5164366 L 309.3219394 31.5660543 L 309.3058119 31.6154787 L 309.2887748 31.6647267 L 309.2709021 31.7138155 L 309.2522674 31.7627622 L 309.2522674 31.7627622 L 309.2236162 31.8336863 L 309.1932333 31.9034937 L 309.1611511 31.972206 L 309.1274021 32.0398448 L 309.0920184 32.1064318 L 309.0550325 32.1719884 L 309.0164766 32.2365365 L 308.9763832 32.3000975 L 308.9347845 32.3626932 L 308.8917129 32.4243451 L 308.8472007 32.4850748 L 308.8012802 32.5449041 L 308.7539838 32.6038544 L 308.7053439 32.6619476 L 308.6553927 32.719205 L 308.6041626 32.7756485 L 308.6041626 32.7756485 L 308.5490509 32.8346691 L 308.4934305 32.8931221 L 308.437274 32.9509766 L 308.3805535 33.0082018 L 308.3232416 33.064767 L 308.2653106 33.1206412 L 308.2067328 33.1757936 L 308.1474806 33.2301935 L 308.0875265 33.28381 L 308.0268427 33.3366122 L 307.9654017 33.3885695 L 307.9031758 33.4396508 L 307.8401375 33.4898254 L 307.776259 33.5390626 L 307.7115127 33.5873314 L 307.6458711 33.634601 L 307.4801894 33.7518085 L 307.4635639 33.8514013 L 307.4635639 33.8514013 L 307.4512281 33.9569963 L 307.4369967 34.0628825 L 307.4218076 34.1696483 L 307.4065988 34.2778818 L 307.4049589 34.2879222 L 307.4049589 34.2879222 L 307.4215604 34.2881782 L 307.4369048 34.2884703 L 307.4511031 34.288816 L 307.4643255 34.2892427 L 307.4887474 34.2904923 L 307.5122689 34.2925928 L 307.5244156 34.2941025 L 307.5372001 34.296 L 307.5508837 34.2983487 L 307.5656953 34.3012117 L 307.5818213 34.3046511 L 307.5993958 34.3087269 L 307.618497 34.3134961 L 307.639152 34.3190134 L 307.6613453 34.3253319 L 307.6850253 34.3325036 L 307.7101104 34.3405797 L 307.7364939 34.3496108 L 307.7640486 34.359647 L 307.7926318 34.3707381 L 307.8220904 34.3829332 L 307.852265 34.3962806 L 307.8829952 34.4108274 L 307.9141231 34.4266192 L 307.945498 34.4436991 L 307.97698 34.4621072 L 308.0084449 34.4818791 L 308.0397884 34.5030455 L 308.0709302 34.5256299 L 308.101819 34.5496481 L 308.1252266 34.5378496 L 308.1252266 34.5378496 L 308.1556819 34.5257708 L 308.1860381 34.5147701 L 308.2162963 34.5048353 L 308.2464574 34.4959542 L 308.2765226 34.4881147 L 308.3064928 34.4813046 L 308.3363691 34.4755119 L 308.3661525 34.4707243 L 308.395844 34.4669297 L 308.4254447 34.464116 L 308.4549556 34.462271 L 308.4843778 34.4613827 L 308.5137122 34.4614388 L 308.5429599 34.4624272 L 308.5721219 34.4643357 L 308.6011993 34.4671523 L 308.6301931 34.4708648 L 308.6591043 34.475461 L 308.6879339 34.4809288 L 308.7166831 34.4872561 L 308.7453527 34.4944306 L 308.7739439 34.5024404 L 308.8024577 34.5112731 L 308.8308951 34.5209168 L 308.8592571 34.5313592 L 308.8875448 34.5425882 L 308.9157592 34.5545917 L 308.9439013 34.5673574 L 308.9719722 34.5808734 L 308.9999729 34.5951274 L 309.0279044 34.6101072 L 309.0557678 34.6258008 A 1.7957499 1.7957499 303.05783 0 1 309.3705633 34.8861168 L 309.3705633 34.8861168 L 309.3501863 34.8731172 L 309.3294924 34.8611367 L 309.3084961 34.8501338 L 309.2872117 34.8400672 L 309.2656537 34.8308955 L 309.2438365 34.8225773 L 309.2217745 34.8150711 L 309.1994822 34.8083357 L 309.1769739 34.8023296 L 309.1542641 34.7970113 L 309.1313673 34.7923396 L 309.1082977 34.7882731 L 309.0616984 34.7817898 L 309.0145815 34.7772302 L 309.0145815 34.7772302 L 308.9414813 34.7723727 L 308.8684383 34.7694254 L 308.7954776 34.7686428 L 308.7590359 34.769143 L 308.7226241 34.7702799 L 308.6862454 34.7720853 L 308.6499028 34.7745912 L 308.6135995 34.7778294 L 308.5773387 34.7818317 L 308.5411233 34.7866299 L 308.5049566 34.7922559 L 308.4688417 34.7987416 L 308.4327817 34.8061187 A 2.0691752 2.0691752 256.4460759 0 0 308.3032934 34.8418195 A 0.8953058 0.8953058 336.8426255 0 1 308.343278 34.9561289 L 308.343278 34.9561289 L 308.3546247 35.0004014 L 308.3643376 35.0447143 L 308.372458 35.0890635 L 308.3790273 35.1334446 L 308.3840871 35.1778536 L 308.3876786 35.2222862 L 308.3898434 35.266738 L 308.3906227 35.311205 L 308.3900581 35.3556828 L 308.3881909 35.4001672 L 308.3850626 35.4446541 L 308.3807145 35.4891391 L 308.3751881 35.5336181 L 308.3685247 35.5780868 L 308.3607659 35.622541 L 308.351953 35.6669764 L 308.351953 35.6669764 L 308.3380841 35.728913 L 308.3227364 35.7896613 L 308.305916 35.849225 L 308.2876286 35.9076081 L 308.2678803 35.9648143 L 308.2466771 36.0208475 L 308.2240248 36.0757113 L 308.1999295 36.1294098 L 308.174397 36.1819465 L 308.1474334 36.2333254 L 308.1190447 36.2835503 L 308.0892366 36.332625 L 308.0580153 36.3805532 L 308.0253866 36.4273389 L 307.9913566 36.4729857 L 307.9559311 36.5174975 L 307.9191162 36.5608782 L 307.8809177 36.6031315 L 307.8413417 36.6442612 L 307.800394 36.6842711 L 307.7580807 36.7231651 L 307.7144077 36.760947 L 307.6693809 36.7976205 L 307.6230063 36.8331894 L 307.5752899 36.8676577 L 307.5262376 36.901029 L 307.4758554 36.9333073 L 307.4241492 36.9644962 L 307.3711249 36.9945997 L 307.3167886 37.0236214 L 307.2611462 37.0515653 L 307.2042036 37.0784352 L 307.2042036 37.0784352 L 307.1729681 37.0922962 L 307.1414889 37.1054334 L 307.1097737 37.117855 L 307.0778302 37.129569 L 307.0456663 37.1405837 L 307.0132897 37.1509073 L 306.9807083 37.160548 L 306.9479297 37.1695139 L 306.9149618 37.1778132 L 306.8818123 37.1854541 L 306.8484891 37.1924448 L 306.8149999 37.1987934 L 306.7813525 37.2045082 L 306.7475547 37.2095973 L 306.7136143 37.214069 L 306.679539 37.2179313 A 3.7073263 3.7073263 86.7118012 0 1 306.6313694 37.2203845 A 8.8525145 8.8525145 21.9170094 0 1 306.5089784 37.5096524 A 8.0236232 8.0236232 287.9953918 0 1 306.5662432 37.5284919 L 306.5662432 37.5284919 L 306.9074819 37.6489209 L 307.2480941 37.7711158 L 307.2480941 37.7711158 L 307.5232041 37.8703786 L 307.6609118 37.9195648 L 307.798822 37.9681599 L 307.9370104 38.015943 L 308.0755523 38.0626934 L 308.2145234 38.1081903 L 308.3539992 38.1522129 L 308.3539992 38.1522129 L 308.4655337 38.1860161 L 308.5774443 38.2183069 L 308.689801 38.2487142 L 308.7461687 38.2630956 L 308.8026742 38.2768669 L 308.8593264 38.2899818 L 308.9161341 38.302394 L 308.973106 38.314057 L 309.0302508 38.3249245 L 309.0875775 38.33495 L 309.1450947 38.3440872 L 309.2028112 38.3522898 L 309.2607359 38.3595113 A 1.5450092 1.5450092 96.4726428 0 0 310.0700881 38.2327512 L 310.0700881 38.2327512 L 310.0184315 38.276493 L 309.9658187 38.3182159 L 309.9122404 38.3578964 L 309.8576872 38.395511 L 309.8021496 38.431036 L 309.7456181 38.464448 L 309.6880833 38.4957234 L 309.6295358 38.5248386 L 309.5998792 38.5385788 L 309.569966 38.5517701 L 309.5397948 38.5644097 L 309.5093646 38.5764944 L 309.4786741 38.5880215 L 309.4477221 38.5989879 L 309.4165075 38.6093908 L 309.385029 38.6192271 L 309.3532856 38.6284939 L 309.3212759 38.6371883 L 309.288999 38.6453074 L 309.2564534 38.6528482 L 309.2236382 38.6598077 L 309.190552 38.666183 L 309.1571937 38.6719712 L 309.1235622 38.6771693 L 309.1235622 38.6771693 L 309.0708745 38.6840899 L 309.0182388 38.6895773 L 308.9656537 38.6936783 L 308.913118 38.6964395 L 308.8606304 38.6979077 L 308.8081895 38.6981294 L 308.755794 38.6971514 L 308.7034426 38.6950202 L 308.6511341 38.6917826 L 308.5988671 38.6874852 L 308.5466402 38.6821746 L 308.4944523 38.6758976 L 308.442302 38.6687008 L 308.3901879 38.6606309 L 308.3381088 38.6517345 L 308.2860634 38.6420582 L 308.2860634 38.6420582 L 308.2009872 38.6246203 L 308.1165037 38.6053748 L 308.0325736 38.5844414 L 307.9491578 38.5619394 L 307.866217 38.5379883 L 307.7837119 38.5127077 L 307.7016034 38.486217 L 307.6198522 38.4586357 L 307.538419 38.4300833 L 307.4572647 38.4006792 L 307.37635 38.370543 L 307.2956357 38.3397941 L 307.1346512 38.2769362 L 306.9739975 38.2130613 L 306.9739975 38.2130613 L 306.3663199 37.9704586 A 14.7117739 14.7117739 288.9535319 0 0 306.2997963 37.9477905 A 8.8525145 8.8525145 27.0927746 0 1 306.2689836 38.0074634 L 306.2689836 38.0074634 L 306.2236667 38.0923212 L 306.1769965 38.1763856 L 306.1288626 38.2596375 L 306.0791546 38.3420581 L 306.0277622 38.4236283 L 305.974575 38.5043292 L 305.9194825 38.5841418 L 305.8623744 38.6630471 L 305.8623744 38.6630471 L 305.821504 38.7161243 L 305.7798884 38.7682562 L 305.7374459 38.8193478 L 305.6940946 38.8693042 L 305.6497525 38.9180302 L 305.604338 38.9654309 L 305.5577689 39.011411 L 305.5099637 39.0558757 L 305.4608402 39.0987299 L 305.4103168 39.1398784 L 305.3583115 39.1792263 L 305.3317275 39.1981953 L 305.3047424 39.2166786 L 305.2773459 39.2346641 L 305.2495278 39.2521401 L 305.2212778 39.2690946 L 305.1925856 39.2855158 L 305.1634412 39.3013917 L 305.1338342 39.3167106 L 305.1037544 39.3314606 L 305.0731916 39.3456296 L 305.0731916 39.3456296 L 305.0402954 39.3601281 L 305.0073258 39.3740205 L 304.9742829 39.387298 L 304.9411672 39.3999517 L 304.9079791 39.4119729 L 304.8747189 39.4233526 L 304.841387 39.4340819 L 304.8079838 39.4441521 L 304.7745096 39.4535542 L 304.7409647 39.4622795 L 304.7073496 39.470319 L 304.6736647 39.4776639 L 304.6399102 39.4843053 L 304.6060866 39.4902344 L 304.5721942 39.4954423 L 304.5382334 39.4999202 L 304.5042045 39.5036592 L 304.4701079 39.5066505 L 304.4359441 39.5088851 L 304.4017133 39.5103543 L 304.3674159 39.5110492 L 304.3330522 39.5109609 L 304.2986228 39.5100805 L 304.2641278 39.5083993 L 304.2295678 39.5059083 L 304.1949429 39.5025987 L 304.1602537 39.4984617 L 304.1255005 39.4934883 L 304.0906836 39.4876698 L 304.0558034 39.4809972 L 304.0208603 39.4734617 L 303.9858547 39.4650545 L 303.9858547 39.4650545 L 303.9591222 39.4578808 L 303.932747 39.4499525 L 303.906733 39.4412783 L 303.8810903 39.4318644 L 303.855837 39.4217095 L 303.8310013 39.4108002 L 303.8066221 39.3991088 L 303.78275 39.3865908 L 303.7594469 39.373185 L 303.736785 39.3588137 L 303.7148454 39.3433849 L 303.6937153 39.3267959 L 303.6734829 39.3089392 L 303.6542328 39.28971 L 303.6360385 39.2690154 L 303.6189525 39.2467883 L 303.6189525 39.2467883 L 303.6027412 39.222611 L 303.5879525 39.1971621 L 303.5746209 39.1704235 L 303.5627814 39.1423771 L 303.5524685 39.1130048 L 303.543717 39.0822885 L 303.5365616 39.0502101 L 303.5310371 39.0167513 z" stroke-linecap="round"/>
</g>
		<g transform="matrix(37.7953 0 0 -37.7953 22.1531 -38.7223)">
<path style="stroke: rgb(0,0,0); stroke-width: 0.0378; stroke-dasharray: none; stroke-linecap: round; stroke-dashoffset: 0; stroke-linejoin: round; stroke-miterlimit: 4; is-custom-font: none; font-file-url: none; fill: rgb(255,255,255); fill-rule: nonzero; opacity: 1;" transform=" translate(-307.3835, -35.9726)" d="M 308.0345088 34.946455 A 2.0691752 2.0691752 244.7328509 0 0 308.0170597 34.9547909 L 308.0170597 34.9547909 L 307.9435907 34.9910623 L 307.8690664 35.0278764 L 307.793022 35.0654842 L 307.7542845 35.0846643 L 307.7149927 35.1041371 L 307.7149927 35.1041371 L 307.6076466 35.1583465 L 307.5006537 35.213295 L 307.4468856 35.2401785 L 307.3927211 35.2662055 L 307.3379984 35.2910287 L 307.282556 35.3143011 A 1.9783829 1.9783829 69.5119832 0 1 307.2134578 35.338671 L 307.1948179 35.421135 L 307.1948179 35.421135 L 307.1538343 35.5928727 L 307.1107528 35.7640089 L 307.0883776 35.8493367 L 307.0654209 35.9344964 L 307.0418635 36.0194823 L 307.0176864 36.1042883 L 306.9928706 36.1889087 L 306.967397 36.2733375 L 306.9412465 36.3575688 L 306.9144002 36.4415969 L 306.886839 36.5254157 L 306.8585438 36.6090195 L 306.8294957 36.6924022 L 306.7996755 36.7755582 L 306.7996755 36.7755582 L 306.779848 36.8296647 L 306.7595817 36.8844035 L 306.7387221 36.9405107 L 306.7280215 36.9693075 L 306.7171145 36.9987223 L 306.7171145 36.9987223 L 306.725387 36.9968172 L 306.7329487 36.9951658 L 306.7462879 36.99232 L 306.7578279 36.9895767 L 306.7682645 36.9863278 L 306.7682645 36.9863278 L 306.8042767 36.9727847 L 306.8399966 36.9586 L 306.8754028 36.9437295 L 306.910474 36.9281294 L 306.9451888 36.9117557 L 306.9795258 36.8945645 L 307.0134637 36.8765118 L 307.0469811 36.8575535 L 307.0469811 36.8575535 L 307.0796413 36.8380497 L 307.1117019 36.8179986 L 307.1431694 36.7974067 L 307.17405 36.7762803 L 307.2043501 36.7546259 L 307.234076 36.7324496 L 307.2632339 36.709758 L 307.2918303 36.6865574 L 307.3198713 36.6628542 L 307.3473635 36.6386547 L 307.3743129 36.6139652 L 307.400726 36.5887922 L 307.4266091 36.5631421 L 307.4519685 36.5370211 L 307.4768105 36.5104357 L 307.5011414 36.4833922 L 307.5249676 36.4558969 L 307.5482953 36.4279563 L 307.5711309 36.3995768 L 307.5934806 36.3707646 L 307.6153508 36.3415261 L 307.6367479 36.3118678 L 307.657678 36.2817959 L 307.6781476 36.2513169 L 307.7177304 36.1891629 L 307.7555466 36.1254566 L 307.7916469 36.060249 L 307.8260818 35.993591 L 307.8260818 35.993591 L 307.8540151 35.9361748 L 307.8805917 35.8784147 L 307.9056914 35.8202883 L 307.9291939 35.7617733 L 307.9509789 35.7028471 L 307.9709261 35.6434875 L 307.9889152 35.5836718 L 308.004826 35.5233779 L 308.0185381 35.4625831 L 308.0245321 35.4319909 L 308.0299312 35.4012651 L 308.0347206 35.3704029 L 308.0388852 35.3394014 L 308.0424098 35.308258 L 308.0452796 35.2769698 L 308.0474794 35.2455339 L 308.0489942 35.2139476 L 308.049809 35.1822081 L 308.0499087 35.1503125 L 308.0492784 35.1182582 L 308.0479029 35.0860422 L 308.0457672 35.0536617 L 308.0428563 35.021114 A 0.6917031 0.6917031 356.7332629 0 0 308.0345088 34.946455 z" stroke-linecap="round"/>
</g>
		<g transform="matrix(37.7953 0 0 -37.7953 -81.0077 -135.8487)">
<path style="stroke: rgb(0,0,0); stroke-width: 0.0378; stroke-dasharray: none; stroke-linecap: round; stroke-dashoffset: 0; stroke-linejoin: round; stroke-miterlimit: 4; is-custom-font: none; font-file-url: none; fill: rgb(255,255,255); fill-rule: nonzero; opacity: 1;" transform=" translate(-304.654, -38.5424)" d="M 305.7067976 37.7611695 A 14.7117739 14.7117739 286.2585132 0 0 305.672541 37.7512242 L 305.672541 37.7512242 L 305.6276429 37.7403261 L 305.5826951 37.7302555 L 305.5376948 37.7210678 L 305.4926394 37.7128182 L 305.447526 37.7055619 L 305.402352 37.6993542 L 305.3571145 37.6942502 L 305.311811 37.6903054 L 305.2664387 37.6875748 L 305.2209947 37.6861138 L 305.1754765 37.6859777 L 305.1298813 37.6872216 L 305.0842063 37.6899007 L 305.0384488 37.6940705 L 304.9926061 37.699786 L 304.9466754 37.7071026 L 304.9466754 37.7071026 L 304.8839694 37.7190447 L 304.8219498 37.7325868 L 304.7606392 37.7477681 L 304.7000601 37.764628 L 304.640235 37.783206 L 304.5811864 37.8035412 L 304.522937 37.8256732 L 304.4655091 37.8496412 L 304.4089253 37.8754846 L 304.3532082 37.9032428 L 304.2983803 37.9329551 L 304.2444641 37.9646608 L 304.1914821 37.9983994 L 304.1394568 38.0342102 L 304.0884109 38.0721325 L 304.0383667 38.1122056 L 304.0383667 38.1122056 L 304.0004484 38.144597 L 303.9637121 38.1778431 L 303.9282373 38.2119836 L 303.894103 38.2470588 L 303.8613887 38.2831083 L 303.8301735 38.3201723 L 303.8005368 38.3582907 L 303.7725578 38.3975034 L 303.7463159 38.4378503 L 303.7218902 38.4793715 L 303.6993601 38.5221069 L 303.6788048 38.5660963 L 303.6692925 38.5885738 L 303.6603036 38.6113798 L 303.6518481 38.6345194 L 303.6439359 38.6579974 L 303.6365768 38.6818189 L 303.6297808 38.7059889 L 303.6235577 38.7305124 L 303.6179176 38.7553943 L 303.6179176 38.7553943 L 303.6113048 38.7898254 L 303.6062719 38.8239495 L 303.6029069 38.8577262 L 303.6012981 38.8911149 L 303.6015337 38.9240753 L 303.6037017 38.9565669 L 303.6078903 38.9885491 L 303.6141878 39.0199815 L 303.6226822 39.0508237 L 303.6277808 39.0660107 L 303.6334617 39.0810351 L 303.6397359 39.0958916 L 303.6466145 39.1105752 L 303.6541084 39.125081 L 303.6622287 39.1394037 L 303.6709864 39.1535384 L 303.6803925 39.16748 L 303.690458 39.1812235 L 303.701194 39.1947637 L 303.7126115 39.2080956 L 303.7247215 39.2212142 L 303.737535 39.2341144 L 303.751063 39.2467912 L 303.751063 39.2467912 L 303.7674669 39.2611351 L 303.7840673 39.2746796 L 303.8008597 39.2874383 L 303.8178395 39.299425 L 303.8350022 39.3106534 L 303.8523433 39.3211372 L 303.8698583 39.3308901 L 303.8875427 39.3399259 L 303.905392 39.3482582 L 303.9234016 39.3559007 L 303.941567 39.3628673 L 303.9598837 39.3691715 L 303.9783472 39.3748271 L 303.996953 39.3798479 L 304.0156966 39.3842475 L 304.0345734 39.3880396 L 304.0727087 39.3938564 L 304.1113227 39.3974078 L 304.1503794 39.3988038 L 304.1898426 39.3981539 L 304.2296762 39.3955679 L 304.2698441 39.3911554 L 304.31031 39.3850263 L 304.3510379 39.3772901 L 304.3510379 39.3772901 L 304.3858467 39.3692383 L 304.4199527 39.3597685 L 304.4533838 39.3489451 L 304.486168 39.3368326 L 304.5183331 39.3234954 L 304.549907 39.3089978 L 304.5809176 39.2934043 L 304.611393 39.2767792 L 304.6413608 39.259187 L 304.6708492 39.2406922 L 304.6998859 39.221359 L 304.7284989 39.2012519 L 304.7567161 39.1804353 L 304.7845654 39.1589736 L 304.8120747 39.1369312 L 304.8392719 39.1143726 L 304.8392719 39.1143726 L 304.8772957 39.0815144 L 304.914396 39.047844 L 304.9506164 39.0133858 L 304.9860002 38.9781637 L 305.0205911 38.9422019 L 305.0544324 38.9055246 L 305.0875676 38.868156 L 305.1200402 38.8301201 L 305.1518937 38.7914412 L 305.1831715 38.7521434 L 305.2139172 38.7122508 L 305.2441741 38.6717877 L 305.2739858 38.630778 L 305.3033958 38.5892461 L 305.3611842 38.504712 L 305.3611842 38.504712 L 305.4117213 38.4222834 L 305.4366702 38.3808919 L 305.4607155 38.3389996 L 305.4607155 38.3389996 L 305.4955967 38.2746486 L 305.5290891 38.2096853 L 305.5610371 38.144045 L 305.5912852 38.0776629 L 305.6196779 38.0104744 L 305.6460599 37.9424148 L 305.6584482 37.9080381 L 305.6702755 37.8734194 L 305.6815224 37.8385506 L 305.6921693 37.8034236 A 18.0564126 18.0564126 19.166668 0 0 305.7067976 37.7611695 z" stroke-linecap="round"/>
</g>
		<g transform="matrix(37.7953 0 0 -37.7953 -33.5234 -25.9944)">
<path style="stroke: rgb(0,0,0); stroke-width: 0.0378; stroke-dasharray: none; stroke-linecap: round; stroke-dashoffset: 0; stroke-linejoin: round; stroke-miterlimit: 4; is-custom-font: none; font-file-url: none; fill: rgb(255,255,255); fill-rule: nonzero; opacity: 1;" transform=" translate(-305.9104, -35.6358)" d="M 306.3983715 35.4810557 L 306.4104593 35.4350416 A 1.3912923 1.3912923 100.053396 0 1 306.3690904 35.4270595 L 306.3690904 35.4270595 L 306.3440687 35.4191898 L 306.3195295 35.4103258 L 306.2955977 35.4002944 L 306.272398 35.3889226 L 306.2500552 35.3760372 L 306.2286942 35.361465 L 306.2084397 35.3450332 L 306.1987664 35.3360657 L 306.1894166 35.3265684 L 306.1894166 35.3265684 L 306.1797889 35.3159332 L 306.1707989 35.3052011 L 306.1624353 35.2943747 L 306.154687 35.283457 L 306.1409914 35.261359 L 306.1296228 35.2389298 L 306.1204919 35.216192 L 306.1135092 35.1931685 L 306.1085855 35.169882 L 306.1056313 35.1463552 L 306.1045572 35.1226108 L 306.105274 35.0986716 L 306.1076923 35.0745604 L 306.1117226 35.0502999 L 306.1172756 35.0259128 L 306.124262 35.0014218 L 306.1325924 34.9768497 L 306.1421775 34.9522193 L 306.1421775 34.9522193 L 306.1582875 34.9156238 L 306.1758574 34.8802252 L 306.1948437 34.8460052 L 306.2152033 34.8129452 L 306.2368927 34.7810269 L 306.2598686 34.7502319 L 306.2840877 34.7205417 L 306.3095066 34.6919379 L 306.3360821 34.6644021 L 306.3637709 34.6379158 L 306.3925294 34.6124607 L 306.4223146 34.5880183 L 306.4530829 34.5645702 L 306.4847912 34.542098 L 306.517396 34.5205833 L 306.5508541 34.5000076 A 1.6651551 1.6651551 241.0385896 0 1 306.6482014 34.4502352 L 306.7099455 34.193609 L 306.689473 34.2058368 L 306.689473 34.2058368 L 306.5539781 34.2902383 L 306.4867099 34.3330061 L 306.4198437 34.3762936 L 306.3534415 34.4202072 L 306.2875652 34.4648531 L 306.2222769 34.5103376 L 306.1576383 34.556767 L 306.0937115 34.6042476 L 306.0305584 34.6528858 L 305.968241 34.7027877 L 305.9068211 34.7540597 L 305.8463607 34.8068082 L 305.7869218 34.8611393 L 305.7285662 34.9171593 L 305.6713561 34.9749747 L 305.6713561 34.9749747 L 305.6251817 35.0262324 L 305.580515 35.0785911 L 305.5374349 35.1321053 L 305.4960207 35.1868295 L 305.4563514 35.2428184 L 305.4185063 35.3001264 L 305.3825645 35.3588081 L 305.365332 35.3886811 L 305.348605 35.418918 L 305.348605 35.418918 L 305.3207716 35.4716596 L 305.294255 35.5247633 L 305.2691465 35.5782498 L 305.2455372 35.6321396 L 305.2235183 35.6864533 L 305.2031811 35.7412115 L 305.1846166 35.7964349 L 305.167916 35.8521441 L 305.1531706 35.9083597 L 305.1404714 35.9651022 L 305.1299098 36.0223923 L 305.1215767 36.0802506 L 305.1182745 36.1093993 L 305.1155636 36.1386977 L 305.1134554 36.1681485 L 305.1119614 36.1977542 L 305.1110929 36.2275174 L 305.1108614 36.2574407 L 305.1112782 36.2875267 L 305.1123548 36.3177779 L 305.1123548 36.3177779 L 305.1150887 36.3582328 L 305.1195141 36.3979343 L 305.1256601 36.4368615 L 305.1335559 36.4749934 L 305.1432305 36.5123094 L 305.1547132 36.5487885 L 305.168033 36.5844099 L 305.183219 36.6191528 L 305.2003005 36.6529962 L 305.2193066 36.6859194 L 305.2402663 36.7179016 L 305.2632087 36.7489218 L 305.2881632 36.7789592 L 305.3151587 36.8079929 L 305.3442244 36.8360023 L 305.3753894 36.8629663 L 305.3753894 36.8629663 L 305.4033901 36.8849284 L 305.4319962 36.9054269 L 305.461183 36.9245241 L 305.4909256 36.9422822 L 305.5211992 36.9587632 L 305.5519789 36.9740295 L 305.5832398 36.9881431 L 305.6149572 37.0011662 L 305.6471061 37.0131611 L 305.6796618 37.02419 L 305.7125994 37.0343149 L 305.745894 37.0435981 L 305.7795208 37.0521017 L 305.8134549 37.059888 L 305.8476716 37.0670191 L 305.8821459 37.0735572 A 2.1169496 2.1169496 96.2985651 0 0 305.9272535 37.0780477 A 18.0564127 18.0564127 16.7468988 0 0 305.9404747 37.033906 L 305.9404747 37.033906 L 305.9722846 36.9377911 L 306.0035066 36.8415037 L 306.0643258 36.6484521 L 306.1232109 36.4548325 L 306.1804403 36.260726 L 306.2362926 36.0662139 L 306.2910462 35.8713774 L 306.3983715 35.4810557 z" stroke-linecap="round"/>
</g>
		<g transform="matrix(37.7953 0 0 -37.7953 -15.243 -0.578)">
<path style="stroke: rgb(0,0,0); stroke-width: 0.0378; stroke-dasharray: none; stroke-linecap: round; stroke-dashoffset: 0; stroke-linejoin: round; stroke-miterlimit: 4; is-custom-font: none; font-file-url: none; fill: rgb(255,255,255); fill-rule: nonzero; opacity: 1;" transform=" translate(-306.3941, -34.9634)" d="M 306.6227489 34.5562924 A 1.6501641 1.6501641 243.8698194 0 0 306.498924 34.6237446 L 306.498924 34.6237446 L 306.4725206 34.6418639 L 306.4466503 34.6604721 L 306.4213859 34.6796237 L 306.3968002 34.6993728 L 306.3729657 34.7197739 L 306.3499553 34.7408813 L 306.3278415 34.7627492 L 306.3066971 34.785432 L 306.2865949 34.8089839 L 306.2676074 34.8334593 L 306.2498074 34.8589124 L 306.2332676 34.8853977 L 306.2180608 34.9129694 L 306.2042595 34.9416818 L 306.1919365 34.9715891 L 306.1811645 35.0027459 L 306.1811645 35.0027459 L 306.1768543 35.0175386 L 306.1732403 35.0321884 L 306.1703162 35.0466846 L 306.168076 35.0610167 L 306.1665134 35.0751743 L 306.1656222 35.0891469 L 306.1653964 35.102924 L 306.1658297 35.116495 L 306.1669161 35.1298494 L 306.1686493 35.1429768 L 306.1710231 35.1558666 L 306.1740315 35.1685084 L 306.1776682 35.1808916 L 306.1819271 35.1930057 L 306.186802 35.2048403 L 306.1922868 35.2163849 L 306.1983754 35.2276288 L 306.2050614 35.2385617 L 306.2123389 35.249173 L 306.2202015 35.2594522 L 306.2286433 35.2693889 L 306.2376579 35.2789725 L 306.2472393 35.2881924 L 306.2573813 35.2970383 L 306.2680776 35.3054997 L 306.2793223 35.3135659 L 306.291109 35.3212265 L 306.3034317 35.328471 L 306.3162841 35.335289 L 306.3296602 35.3416698 L 306.3435537 35.347603 L 306.3579585 35.3530782 A 0.9148152 0.9148152 106.2530748 0 0 306.4274368 35.370414 L 306.4436231 35.3087983 L 306.4436231 35.3087983 L 306.476216 35.1820207 L 306.5076823 35.0549706 L 306.5076823 35.0549706 L 306.5382166 34.9317247 L 306.5693069 34.8082091 L 306.5842475 34.7460317 L 306.5983515 34.6834046 L 306.6112937 34.6202007 L 306.6227489 34.5562924 z" stroke-linecap="round"/>
</g>
		<g transform="matrix(37.7953 0 0 -37.7953 29.8144 7.522)">
<path style="stroke: rgb(0,0,0); stroke-width: 0.0378; stroke-dasharray: none; stroke-linecap: round; stroke-dashoffset: 0; stroke-linejoin: round; stroke-miterlimit: 4; is-custom-font: none; font-file-url: none; fill: rgb(255,255,255); fill-rule: nonzero; opacity: 1;" transform=" translate(-307.5862, -34.749)" d="M 307.3813172 34.4326712 L 307.3813172 34.4326712 L 307.3037438 34.896022 L 307.3037438 34.896022 L 307.2688776 35.0934899 L 307.2651508 35.1099775 A 2.2033912 2.2033912 61.247423 0 0 307.2804494 35.1015044 L 307.2804494 35.1015044 L 307.3408583 35.0599711 L 307.4006465 35.0174246 L 307.460032 34.9740269 L 307.5192324 34.9299397 L 307.637949 34.8403442 L 307.6979008 34.7951594 L 307.7585386 34.7499324 L 307.9072798 34.6477049 L 307.9072798 34.6477049 L 307.8830382 34.6181229 L 307.8579295 34.5905652 L 307.8319661 34.5649817 L 307.8051606 34.5413222 L 307.7775254 34.5195367 L 307.7490729 34.4995751 L 307.7198157 34.4813872 L 307.6897663 34.464923 L 307.658937 34.4501322 L 307.6273404 34.4369649 L 307.5949889 34.425371 L 307.561895 34.4153002 L 307.5280711 34.4067025 L 307.4935299 34.3995279 L 307.4582836 34.3937261 L 307.4223448 34.3892471 A 1.6501641 1.6501641 272.5300445 0 0 307.3885967 34.3881017 L 307.3813172 34.4326712 z" stroke-linecap="round"/>
</g>
		<g transform="matrix(37.7953 0 0 -37.7953 62.576 113.0376)">
<path style="stroke: rgb(0,0,0); stroke-width: 0.0378; stroke-dasharray: none; stroke-linecap: round; stroke-dashoffset: 0; stroke-linejoin: round; stroke-miterlimit: 4; is-custom-font: none; font-file-url: none; fill: rgb(255,255,255); fill-rule: nonzero; opacity: 1;" transform=" translate(-308.453, -31.9573)" d="M 309.1083051 30.7717298 L 309.1083051 30.7717298 L 309.084083 30.7686282 L 309.0599792 30.7675434 L 309.0360014 30.768303 L 309.0121574 30.7707349 L 308.9884547 30.7746668 L 308.9649012 30.7799266 L 308.9415043 30.7863419 L 308.9182719 30.7937406 L 308.9182719 30.7937406 L 308.894577 30.8022332 L 308.871342 30.8114932 L 308.8485373 30.8214915 L 308.8261332 30.8321991 L 308.8041002 30.8435869 L 308.7824087 30.8556259 L 308.7610289 30.868287 L 308.7399313 30.8815412 L 308.6984642 30.9097126 L 308.6577703 30.9399078 L 308.6176127 30.9718944 L 308.5777543 31.0054399 L 308.5777543 31.0054399 L 308.5506556 31.030782 L 308.5241135 31.0565009 L 308.498117 31.0825889 L 308.4726554 31.1090385 L 308.4477178 31.1358421 L 308.4232933 31.1629921 L 308.37594 31.2183009 L 308.3305087 31.2749042 L 308.2869124 31.3327413 L 308.2450641 31.3917515 L 308.2048768 31.4518741 L 308.1662637 31.5130483 L 308.1291377 31.5752134 L 308.0934119 31.6383087 L 308.0589994 31.7022735 L 308.0258131 31.767047 L 307.9937661 31.8325686 L 307.9627715 31.8987775 L 307.9327422 31.965613 L 307.9327422 31.965613 L 307.9021463 32.0368472 L 307.8729112 32.1084952 L 307.8449924 32.1805428 L 307.8183457 32.2529756 L 307.7929266 32.3257793 L 307.7686908 32.3989397 L 307.7455939 32.4724422 L 307.7235916 32.5462727 L 307.7026394 32.6204167 L 307.6826929 32.6948601 L 307.6637079 32.7695883 L 307.6456399 32.8445872 L 307.6284446 32.9198423 L 307.6120775 32.9953394 L 307.5964944 33.0710641 L 307.5816508 33.147002 L 307.5816508 33.147002 L 307.6302298 33.1209515 L 307.677198 33.0954686 L 307.7225861 33.070531 L 307.7664421 33.0461029 L 307.8088296 33.0221357 L 307.849825 32.9985699 L 307.8895154 32.9753349 L 307.9279969 32.9523511 L 307.9653727 32.92953 L 308.0017522 32.9067749 L 308.0372496 32.8839814 L 308.0719835 32.8610382 L 308.1060752 32.8378274 L 308.1396481 32.8142248 L 308.1728268 32.790101 L 308.2057361 32.7653218 L 308.238501 32.7397485 L 308.2712456 32.7132392 L 308.3040929 32.6856488 L 308.3371642 32.6568299 L 308.3705784 32.6266335 L 308.4044511 32.5949104 L 308.4388941 32.5615128 L 308.4740144 32.5262955 L 308.5099133 32.4891178 L 308.5466857 32.4498453 L 308.565427 32.4293834 L 308.5844189 32.4083509 L 308.6036708 32.3867336 L 308.6231917 32.3645179 L 308.6429899 32.3416915 L 308.6630727 32.3182429 L 308.6834469 32.2941618 L 308.7041183 32.2694392 L 308.7250917 32.2440674 L 308.746371 32.2180404 L 308.7679592 32.1913535 L 308.789858 32.1640039 L 308.789858 32.1640039 L 308.8491018 32.0937099 L 308.9065953 32.0221703 L 308.9345983 31.9858819 L 308.9620588 31.9492203 L 308.9889421 31.9121648 L 309.015213 31.8746948 L 309.0408367 31.8367897 L 309.0657783 31.7984289 L 309.0900027 31.7595917 L 309.1134751 31.7202575 L 309.1361606 31.6804057 L 309.1580241 31.6400156 L 309.1790308 31.5990667 L 309.1991456 31.5575384 L 309.1991456 31.5575384 L 309.2275874 31.4945979 L 309.2409308 31.462894 L 309.2535824 31.4310115 L 309.2654621 31.398933 L 309.2764896 31.3666413 L 309.286585 31.3341191 L 309.2956679 31.3013492 L 309.3036583 31.2683143 L 309.310476 31.2349972 L 309.3160409 31.2013806 L 309.3202728 31.1674474 L 309.3230916 31.1331801 L 309.3244172 31.0985617 L 309.3241694 31.0635748 L 309.322268 31.0282022 L 309.322268 31.0282022 L 309.3194878 31.0031686 L 309.315118 30.9790496 L 309.3091966 30.9559064 L 309.3017615 30.9338003 L 309.2928507 30.9127926 L 309.2825022 30.8929446 L 309.2707541 30.8743175 L 309.2576443 30.8569727 L 309.2432108 30.8409715 L 309.2274917 30.8263751 L 309.2105248 30.8132447 L 309.1923483 30.8016418 L 309.173 30.7916276 L 309.1525181 30.7832633 L 309.1309405 30.7766103 L 309.1083051 30.7717298 z" stroke-linecap="round"/>
</g>
</g>
</g>
</svg>
